<?xml version="1.0" encoding="UTF-8" ?>
<!DOCTYPE svg PUBLIC "-//W3C//DTD SVG 1.1//EN" "http://www.w3.org/Graphics/SVG/1.1/DTD/svg11.dtd">
<svg width="218pt" height="164pt" viewBox="0 0 218 164" version="1.1" xmlns="http://www.w3.org/2000/svg">
<g id="#ffffffff">
</g>
<g id="#00b2ffff">
<path fill="#00b2ff" opacity="1.00" d=" M 57.43 57.60 C 67.32 40.56 86.38 29.52 105.98 28.76 C 112.86 29.15 119.68 30.69 126.22 32.83 C 131.21 34.82 136.53 36.61 140.52 40.37 C 145.46 44.74 150.77 48.91 154.44 54.49 C 154.50 55.02 154.63 56.08 154.69 56.61 C 154.84 56.55 155.16 56.42 155.31 56.36 C 156.06 60.74 159.24 64.30 159.60 68.83 C 155.34 60.39 150.44 51.95 142.80 46.12 C 135.35 41.03 127.16 36.41 118.07 35.28 C 110.85 36.17 103.42 35.46 96.36 37.56 C 91.95 38.94 87.20 40.30 83.94 43.78 C 94.04 39.84 105.15 36.83 115.99 39.18 C 118.98 40.47 121.81 42.12 124.89 43.23 C 135.89 47.79 146.32 55.93 150.36 67.48 C 151.88 70.63 152.98 73.99 152.89 77.54 C 149.77 62.65 138.65 49.75 124.27 44.70 C 106.98 38.21 85.04 43.85 75.03 59.89 C 72.95 64.15 70.27 68.15 68.92 72.74 C 62.69 91.39 70.27 114.42 87.68 124.23 C 93.69 126.57 99.25 130.63 105.96 130.58 C 122.98 132.60 139.56 122.26 148.35 108.13 C 148.74 108.30 149.51 108.63 149.90 108.80 C 152.26 104.76 154.52 100.62 156.12 96.21 C 157.46 92.62 158.09 88.78 159.87 85.36 C 161.78 96.02 158.51 106.51 156.07 116.78 C 155.39 118.30 154.51 119.72 153.74 121.20 C 158.93 116.56 161.13 109.76 164.17 103.72 C 164.47 111.43 161.80 119.11 157.23 125.29 C 147.81 137.66 133.45 146.15 118.05 148.39 C 108.44 149.50 98.46 148.95 89.36 145.45 C 72.77 138.35 58.52 124.82 52.59 107.54 C 46.79 91.24 48.51 72.44 57.43 57.60 Z" />
</g>
</svg>
