<?xml version="1.0" standalone="no"?>
<svg xmlns:xlink="http://www.w3.org/1999/xlink" id="wave" style="transform:rotate(0deg); transition: 0.3s" viewBox="0 0 1440 490" version="1.1" xmlns="http://www.w3.org/2000/svg"><defs><linearGradient id="sw-gradient-0" x1="0" x2="0" y1="1" y2="0"><stop stop-color="rgba(35.362, 180.599, 255, 1)" offset="0%"/><stop stop-color="rgba(39.252, 70.407, 180.293, 1)" offset="100%"/></linearGradient></defs><path style="transform:translate(0, 0px); opacity:1" fill="url(#sw-gradient-0)" d="M0,147L26.7,187.8C53.3,229,107,310,160,294C213.3,278,267,163,320,138.8C373.3,114,427,180,480,171.5C533.3,163,587,82,640,40.8C693.3,0,747,0,800,40.8C853.3,82,907,163,960,196C1013.3,229,1067,212,1120,236.8C1173.3,261,1227,327,1280,294C1333.3,261,1387,131,1440,122.5C1493.3,114,1547,229,1600,269.5C1653.3,310,1707,278,1760,277.7C1813.3,278,1867,310,1920,285.8C1973.3,261,2027,180,2080,130.7C2133.3,82,2187,65,2240,57.2C2293.3,49,2347,49,2400,65.3C2453.3,82,2507,114,2560,130.7C2613.3,147,2667,147,2720,138.8C2773.3,131,2827,114,2880,106.2C2933.3,98,2987,98,3040,106.2C3093.3,114,3147,131,3200,187.8C3253.3,245,3307,343,3360,375.7C3413.3,408,3467,376,3520,318.5C3573.3,261,3627,180,3680,179.7C3733.3,180,3787,261,3813,302.2L3840,343L3840,490L3813.3,490C3786.7,490,3733,490,3680,490C3626.7,490,3573,490,3520,490C3466.7,490,3413,490,3360,490C3306.7,490,3253,490,3200,490C3146.7,490,3093,490,3040,490C2986.7,490,2933,490,2880,490C2826.7,490,2773,490,2720,490C2666.7,490,2613,490,2560,490C2506.7,490,2453,490,2400,490C2346.7,490,2293,490,2240,490C2186.7,490,2133,490,2080,490C2026.7,490,1973,490,1920,490C1866.7,490,1813,490,1760,490C1706.7,490,1653,490,1600,490C1546.7,490,1493,490,1440,490C1386.7,490,1333,490,1280,490C1226.7,490,1173,490,1120,490C1066.7,490,1013,490,960,490C906.7,490,853,490,800,490C746.7,490,693,490,640,490C586.7,490,533,490,480,490C426.7,490,373,490,320,490C266.7,490,213,490,160,490C106.7,490,53,490,27,490L0,490Z"/><defs><linearGradient id="sw-gradient-1" x1="0" x2="0" y1="1" y2="0"><stop stop-color="rgba(73.243, 0, 255, 1)" offset="0%"/><stop stop-color="rgba(11, 213.673, 255, 1)" offset="100%"/></linearGradient></defs><path style="transform:translate(0, 50px); opacity:0.9" fill="url(#sw-gradient-1)" d="M0,441L26.7,416.5C53.3,392,107,343,160,334.8C213.3,327,267,359,320,359.3C373.3,359,427,327,480,326.7C533.3,327,587,359,640,351.2C693.3,343,747,294,800,228.7C853.3,163,907,82,960,89.8C1013.3,98,1067,196,1120,228.7C1173.3,261,1227,229,1280,204.2C1333.3,180,1387,163,1440,155.2C1493.3,147,1547,147,1600,163.3C1653.3,180,1707,212,1760,204.2C1813.3,196,1867,147,1920,114.3C1973.3,82,2027,65,2080,57.2C2133.3,49,2187,49,2240,65.3C2293.3,82,2347,114,2400,106.2C2453.3,98,2507,49,2560,57.2C2613.3,65,2667,131,2720,204.2C2773.3,278,2827,359,2880,367.5C2933.3,376,2987,310,3040,261.3C3093.3,212,3147,180,3200,138.8C3253.3,98,3307,49,3360,81.7C3413.3,114,3467,229,3520,228.7C3573.3,229,3627,114,3680,89.8C3733.3,65,3787,131,3813,163.3L3840,196L3840,490L3813.3,490C3786.7,490,3733,490,3680,490C3626.7,490,3573,490,3520,490C3466.7,490,3413,490,3360,490C3306.7,490,3253,490,3200,490C3146.7,490,3093,490,3040,490C2986.7,490,2933,490,2880,490C2826.7,490,2773,490,2720,490C2666.7,490,2613,490,2560,490C2506.7,490,2453,490,2400,490C2346.7,490,2293,490,2240,490C2186.7,490,2133,490,2080,490C2026.7,490,1973,490,1920,490C1866.7,490,1813,490,1760,490C1706.7,490,1653,490,1600,490C1546.7,490,1493,490,1440,490C1386.7,490,1333,490,1280,490C1226.7,490,1173,490,1120,490C1066.7,490,1013,490,960,490C906.7,490,853,490,800,490C746.7,490,693,490,640,490C586.7,490,533,490,480,490C426.7,490,373,490,320,490C266.7,490,213,490,160,490C106.7,490,53,490,27,490L0,490Z"/></svg>